#!OML:ASF F:\VICON\USERDATA\INSTALL\rory3\rory3.ASF
:FULLY-SPECIFIED
:DEGREES
1078
root -3.13472 25.2736 -3.6499 -2.3884 -3.01382 4.68831
lowerback 9.71229 1.98151 -1.02471
upperback 2.55616 2.45931 -2.05885
thorax -2.73613 1.22651 -1.84763
lowerneck -7.04713 1.10879 -6.06829
upperneck 31.9038 1.61506 4.02493
head 11.4129 0.509786 2.74648
rclavicle -1.74806e-014 5.91384e-015
rhumerus -29.5005 4.32048 -82.7979
rradius 32.6429
rwrist 15.5408
rhand -25.2772 4.54928
rfingers 7.12502
rthumb 1.24384 -25.4268
lclavicle -1.74806e-014 5.91384e-015
lhumerus -32.046 15.75 74.2106
lradius 33.345
lwrist 3.05927
lhand -28.5089 20.8226
lfingers 7.12502
lthumb -1.87737 50.7941
rfemur -12.6921 15.8353 23.9128
rtibia 42.1675
rfoot -24.6809 -9.13024
rtoes 10.9654
lfemur -35.2847 7.74589 -20.8245
ltibia 61.8098
lfoot 0.368055 4.01161
ltoes -15.5392
1079
root -3.13813 25.2409 -3.61863 -2.49278 -3.10735 4.76554
lowerback 9.78354 1.98043 -1.02349
upperback 2.6144 2.45631 -2.0907
thorax -2.71359 1.22514 -1.88237
lowerneck -7.06479 1.12824 -6.15823
upperneck 31.7999 1.64533 4.07539
head 11.3718 0.520488 2.7814
rclavicle -3.4104e-014 1.99282e-014
rhumerus -29.6233 4.6016 -82.8324
rradius 32.9097
rwrist 15.2992
rhand -24.6776 4.02118
rfingers 7.12502
rthumb 1.82297 -25.9508
lclavicle -3.4104e-014 1.99282e-014
lhumerus -32.1137 15.4486 74.2145
lradius 33.517
lwrist 3.24006
lhand -28.6724 21.2875
lfingers 7.12502
lthumb -2.03528 51.2576
rfemur -12.8618 15.606 23.8702
rtibia 42.8981
rfoot -24.9528 -8.8984
rtoes 10.7077
lfemur -34.8425 7.87197 -21.04
ltibia 59.975
lfoot 1.62402 4.46214
ltoes -15.8958
1080
root -3.13993 25.2064 -3.58558 -2.66121 -3.2345 5.01349
lowerback 9.9604 2.01437 -1.19787
upperback 2.65168 2.4776 -2.15965
thorax -2.7761 1.23607 -1.86501
lowerneck -7.00098 1.14066 -6.26096
upperneck 31.6272 1.6808 4.06619
head 11.2881 0.52629 2.7935
rclavicle 4.31735e-015 -3.57812e-015
rhumerus -29.7186 4.67789 -82.793
rradius 33.0524
rwrist 15.23
rhand -24.706 4.04495
rfingers 7.12502
rthumb 1.79554 -25.9272
lclavicle 4.31735e-015 -3.57812e-015
lhumerus -32.1816 15.2646 74.1902
lradius 33.5366
lwrist 3.28735
lhand -28.8748 21.7756
lfingers 7.12502
lthumb -2.23082 51.7437
rfemur -12.9986 15.2962 23.625
rtibia 43.6738
rfoot -25.2545 -8.54722
rtoes 10.0874
lfemur -34.2888 8.01358 -21.4278
ltibia 58.1397
lfoot 2.63063 5.1868
ltoes -15.3212
1081
root -3.14236 25.1697 -3.55334 -2.79351 -3.33834 5.31088
lowerback 10.0844 2.04201 -1.44384
upperback 2.67537 2.48276 -2.25763
thorax -2.82563 1.23933 -1.83398
lowerneck -7.01212 1.1743 -6.2433
upperneck 31.6358 1.71982 4.08655
head 11.2908 0.548041 2.80256
rclavicle -1.09891e-014 -9.34288e-015
rhumerus -29.8079 4.68577 -82.7885
rradius 33.0919
rwrist 15.1721
rhand -24.9777 4.57792
rfingers 7.12502
rthumb 1.53306 -25.3963
lclavicle -1.09891e-014 -9.34288e-015
lhumerus -32.2602 15.2157 74.0605
lradius 33.5461
lwrist 3.30193
lhand -28.8599 21.9943
lfingers 7.12502
lthumb -2.21639 51.9625
rfemur -13.2028 14.99 23.31
rtibia 44.4846
rfoot -25.5985 -8.16786
rtoes 9.27621
lfemur -33.8031 8.1846 -21.8919
ltibia 56.3525
lfoot 3.67838 6.06055
ltoes -14.0012
1082
root -3.14513 25.1318 -3.52059 -2.93978 -3.38692 5.65101
lowerback 10.1325 2.08403 -1.71126
upperback 2.74908 2.50733 -2.38168
thorax -2.78071 1.25253 -1.81589
lowerneck -7.01509 1.16305 -6.22569
upperneck 31.6169 1.68291 4.1442
head 11.2851 0.540395 2.8163
rclavicle -8.30547e-015 -3.3048e-015
rhumerus -29.8813 4.56664 -82.753
rradius 33.1485
rwrist 15.1862
rhand -24.9756 4.51543
rfingers 7.12502
rthumb 1.53516 -25.4588
lclavicle -8.30547e-015 -3.3048e-015
lhumerus -32.2173 15.0788 73.9647
lradius 33.4911
lwrist 3.34364
lhand -28.8226 21.941
lfingers 7.12502
lthumb -2.18037 51.9096
rfemur -13.3923 14.6825 22.9577
rtibia 45.3134
rfoot -26.0047 -7.82258
rtoes 8.69885
lfemur -33.2906 8.31606 -22.4183
ltibia 54.6075
lfoot 4.62755 6.90892
ltoes -13.4274
1083
root -3.14715 25.0954 -3.48548 -3.10376 -3.44355 5.8498
lowerback 10.1741 2.09997 -1.86907
upperback 2.83163 2.51152 -2.42982
thorax -2.72225 1.25503 -1.77745
lowerneck -6.94391 1.17444 -6.15287
upperneck 31.5046 1.72131 4.00635
head 11.2276 0.551812 2.75206
rclavicle 1.50704e-014 -1.37658e-014
rhumerus -29.9049 4.56425 -82.7071
rradius 33.1633
rwrist 15.2276
rhand -25.0872 4.16215
rfingers 7.12502
rthumb 1.42731 -25.8128
lclavicle 1.50704e-014 -1.37658e-014
lhumerus -32.2608 15.0097 73.8967
lradius 33.5038
lwrist 3.44557
lhand -28.8265 21.6845
lfingers 7.12502
lthumb -2.18414 51.6531
rfemur -13.5641 14.3271 22.7629
rtibia 46.145
rfoot -26.3566 -7.50031
rtoes 8.39026
lfemur -32.7227 8.48114 -22.7672
ltibia 52.9316
lfoot 5.50059 7.65671
ltoes -12.2868
1084
root -3.1462 25.0578 -3.44915 -3.22474 -3.56149 5.89734
lowerback 10.1632 2.07415 -1.91063
upperback 2.91935 2.47605 -2.42389
thorax -2.6277 1.23731 -1.74077
lowerneck -7.04794 1.22374 -6.08431
upperneck 31.53 1.82609 3.86699
head 11.2556 0.590128 2.7022
rclavicle 3.35946e-014 -1.53561e-014
rhumerus -29.8941 4.72314 -82.7159
rradius 33.2298
rwrist 15.28
rhand -25.0538 3.94788
rfingers 7.12502
rthumb 1.45964 -26.0269
lclavicle 3.35946e-014 -1.53561e-014
lhumerus -32.3357 15.1808 73.7306
lradius 33.5138
lwrist 3.57772
lhand -28.5855 21.4354
lfingers 7.12502
lthumb -1.95138 51.4063
rfemur -13.7765 13.9789 22.712
rtibia 46.97
rfoot -26.7006 -7.26104
rtoes 7.77539
lfemur -32.1893 8.66415 -22.9486
ltibia 51.3057
lfoot 6.54842 8.38366
ltoes -10.2847
1085
root -3.1444 25.0165 -3.41299 -3.31089 -3.65602 6.0814
lowerback 10.1074 2.05251 -2.07408
upperback 2.99074 2.43375 -2.46373
thorax -2.52837 1.21635 -1.68113
lowerneck -7.12713 1.26074 -6.16571
upperneck 31.5393 1.87105 3.9573
head 11.2698 0.610974 2.75616
rclavicle -1.2219e-014 2.68359e-015
rhumerus -29.8982 4.88093 -82.695
rradius 33.3595
rwrist 15.2377
rhand -24.6141 3.79846
rfingers 7.12502
rthumb 1.88425 -26.173
lclavicle -1.2219e-014 2.68359e-015
lhumerus -32.3189 15.4668 73.5446
lradius 33.3096
lwrist 3.50418
lhand -28.3445 21.3999
lfingers 7.12502
lthumb -1.71868 51.3727
rfemur -14.0391 13.6028 22.4798
rtibia 47.8005
rfoot -27.0515 -6.90703
rtoes 7.40812
lfemur -31.7187 8.88477 -23.33
ltibia 49.7296
lfoot 7.53701 9.03913
ltoes -9.16989
1086
root -3.14322 24.9756 -3.3775 -3.37703 -3.7337 6.20856
lowerback 10.0874 2.0598 -2.17312
upperback 2.99687 2.43374 -2.48404
thorax -2.51417 1.21641 -1.64575
lowerneck -6.96355 1.26744 -6.1252
upperneck 31.4471 1.87179 3.91909
head 11.2017 0.612515 2.72941
rclavicle 1.42504e-014 -3.37934e-015
rhumerus -29.9602 4.88678 -82.5915
rradius 33.3365
rwrist 15.341
rhand -24.6466 4.084
rfingers 7.12502
rthumb 1.8529 -25.8877
lclavicle 1.42504e-014 -3.37934e-015
lhumerus -32.4097 15.313 73.5312
lradius 33.1644
lwrist 3.36919
lhand -28.4402 21.4613
lfingers 7.12502
lthumb -1.81109 51.4334
rfemur -14.3275 13.2272 22.3058
rtibia 48.6401
rfoot -27.3767 -6.42487
rtoes 7.59508
lfemur -31.2709 9.08325 -23.6429
ltibia 48.2209
lfoot 8.1784 9.52943
ltoes -8.62851
1087
root -3.14101 24.9327 -3.34009 -3.413 -3.86622 6.0944
lowerback 10.0724 2.09368 -2.00965
upperback 2.98745 2.49674 -2.43909
thorax -2.51019 1.24755 -1.69791
lowerneck -6.83476 1.25821 -6.12689
upperneck 31.4018 1.85517 3.9014
head 11.1594 0.603292 2.7179
rclavicle -4.00675e-015 1.66482e-014
rhumerus -30.02 4.89269 -82.4667
rradius 33.2332
rwrist 15.4113
rhand -24.9016 4.2383
rfingers 7.12502
rthumb 1.60659 -25.7354
lclavicle -4.00675e-015 1.66482e-014
lhumerus -32.5973 15.0498 73.576
lradius 33.1786
lwrist 3.22025
lhand -28.429 21.4496
lfingers 7.12502
lthumb -1.80025 51.4218
rfemur -14.6216 12.8691 22.4088
rtibia 49.49
rfoot -27.6333 -6.04021
rtoes 7.13543
lfemur -30.8419 9.27147 -23.6669
ltibia 46.8041
lfoot 8.75821 9.95757
ltoes -8.60857
1088
root -3.13676 24.888 -3.30267 -3.50851 -3.96387 6.13886
lowerback 10.1237 2.10163 -2.01766
upperback 3.03054 2.50609 -2.42492
thorax -2.49447 1.25203 -1.68086
lowerneck -6.85946 1.2576 -6.23777
upperneck 31.3963 1.86165 3.94947
head 11.16 0.59899 2.75591
rclavicle 1.47473e-014 2.78299e-014
rhumerus -29.9595 4.94719 -82.3641
rradius 33.0887
rwrist 15.5122
rhand -24.8254 4.06267
rfingers 7.12502
rthumb 1.68024 -25.9105
lclavicle 1.47473e-014 2.78299e-014
lhumerus -32.7308 15.0047 73.5796
lradius 33.1763
lwrist 3.16611
lhand -28.3679 21.5817
lfingers 7.12502
lthumb -1.74127 51.5543
rfemur -14.8657 12.4499 22.3402
rtibia 50.3517
rfoot -28.0186 -5.67394
rtoes 6.64995
lfemur -30.3676 9.45511 -23.8705
ltibia 45.4396
lfoot 9.29348 10.4709
ltoes -8.19172
1089
root -3.13293 24.8415 -3.26635 -3.60512 -4.02417 6.13889
lowerback 10.1432 2.04996 -2.03155
upperback 3.10284 2.43872 -2.3821
thorax -2.43351 1.21816 -1.61939
lowerneck -6.94497 1.29775 -6.23714
upperneck 31.4072 1.94221 3.8846
head 11.178 0.62739 2.74212
rclavicle -7.30534e-015 2.60408e-014
rhumerus -29.8649 5.23424 -82.3365
rradius 33.0253
rwrist 15.4507
rhand -24.8087 3.64993
rfingers 7.12502
rthumb 1.69633 -26.3231
lclavicle -7.30534e-015 2.60408e-014
lhumerus -32.8256 15.1871 73.4991
lradius 33.0297
lwrist 2.99619
lhand -28.3708 21.6257
lfingers 7.12502
lthumb -1.74403 51.5983
rfemur -15.1315 11.9801 22.3373
rtibia 51.226
rfoot -28.1691 -5.62007
rtoes 4.73419
lfemur -29.8833 9.57265 -24.0077
ltibia 44.1292
lfoot 9.64255 11.051
ltoes -7.04592
1090
root -3.12797 24.7952 -3.22715 -3.64923 -4.05321 6.21461
lowerback 10.0283 2.00045 -2.06316
upperback 3.14893 2.37549 -2.39326
thorax -2.32406 1.18653 -1.59978
lowerneck -6.89909 1.33336 -6.23013
upperneck 31.3785 1.97428 3.92562
head 11.1545 0.64732 2.75763
rclavicle 2.26242e-014 -2.0276e-014
rhumerus -29.8494 5.28204 -82.2662
rradius 33.0408
rwrist 15.5064
rhand -24.8539 3.75076
rfingers 7.12502
rthumb 1.65271 -26.2226
lclavicle 2.26242e-014 -2.0276e-014
lhumerus -32.9413 15.2984 73.3864
lradius 32.8316
lwrist 2.87018
lhand -28.401 21.7103
lfingers 7.12502
lthumb -1.77323 51.6827
rfemur -15.423 11.4788 22.2228
rtibia 52.1045
rfoot -28.3783 -5.28846
rtoes 4.29513
lfemur -29.4414 9.62118 -24.2255
ltibia 42.8107
lfoot 10.1435 11.3957
ltoes -6.59802
1091
root -3.12322 24.7484 -3.18988 -3.74296 -4.13269 6.31715
lowerback 10.0697 1.97548 -2.1315
upperback 3.13481 2.33257 -2.41998
thorax -2.36351 1.16521 -1.58611
lowerneck -6.85052 1.36088 -6.27358
upperneck 31.4852 1.98225 4.0415
head 11.1827 0.656522 2.81102
rclavicle -3.72721e-015 -2.127e-014
rhumerus -29.8879 5.21342 -82.173
rradius 33.019
rwrist 15.5788
rhand -24.7107 3.74704
rfingers 7.12502
rthumb 1.791 -26.2252
lclavicle -3.72721e-015 -2.127e-014
lhumerus -33.1203 15.4279 73.2189
lradius 32.6226
lwrist 2.7116
lhand -28.2718 21.7293
lfingers 7.12502
lthumb -1.64843 51.7027
rfemur -15.6733 11.0681 22.0763
rtibia 52.9928
rfoot -28.6476 -4.93282
rtoes 3.69071
lfemur -28.9471 9.67194 -24.4628
ltibia 41.528
lfoot 10.67 11.6421
ltoes -6.84024
